<svg xmlns="http://www.w3.org/2000/svg" xmlns:xlink="http://www.w3.org/1999/xlink" version="1.1" x="0px" y="0px" viewBox="0 0 48 60" style="enable-background:new 0 0 48 48;" xml:space="preserve"><g><g><path d="M27.5,19c-1.104,0-2,0.895-2,2v7c0,1.104,0.896,2,2,2c1.105,0,2-0.896,2-2v-7C29.5,19.896,28.605,19,27.5,19z M34.5,12    c-1.104,0-2,0.895-2,2v20c0,1.104,0.896,2,2,2c1.105,0,2-0.896,2-2V14C36.5,12.896,35.605,12,34.5,12z"/><path d="M6.501,20L6.501,20C5.395,20,4.5,20.896,4.5,22v4c0,1.104,0.895,2,2,2h0.001c1.105,0,2-0.896,2-2v-4    C8.501,20.896,7.605,20,6.501,20z M13.5,14L13.5,14c-1.105,0-2,0.895-2,2v17c0,1.104,0.895,2,2,2h0c1.105,0,2-0.895,2-2V16    C15.5,14.896,14.605,14,13.5,14z M41.5,21c-1.105,0-2,0.895-2,2v3c0,1.104,0.895,2,2,2c1.104,0,2-0.896,2-2v-3    C43.5,21.896,42.604,21,41.5,21z M20.5,9c-1.105,0-2,0.896-2,2v26c0,1.105,0.895,2,2,2c1.104,0,2-0.895,2-2V11    C22.5,9.896,21.605,9,20.5,9z"/></g></g></svg>